<svg width="49" height="49" viewBox="0 0 49 49" fill="none" xmlns="http://www.w3.org/2000/svg">
<path d="M30.0058 30.4604C31.9388 30.4604 33.5058 32.0274 33.5058 33.9604L33.5036 35.8846C33.737 40.2628 30.4816 42.4785 24.6394 42.4785C18.8215 42.4785 15.5058 40.2989 15.5058 35.9604V33.9604C15.5058 32.0274 17.0728 30.4604 19.0058 30.4604H30.0058ZM8.00577 20.4604L16.7578 20.4606C16.5933 21.0998 16.5058 21.7698 16.5058 22.4604C16.5058 24.6914 17.4191 26.7092 18.8922 28.1602L19.2163 28.4625L19.0058 28.4604C18.4031 28.4604 17.823 28.5574 17.2803 28.7364C15.5509 29.3074 14.2011 30.7132 13.7082 32.4768L13.6393 32.4785C7.82149 32.4785 4.50577 30.2988 4.50577 25.9604V23.9604C4.50577 22.0274 6.07277 20.4604 8.00577 20.4604ZM41.0058 20.4604C42.9388 20.4604 44.5058 22.0274 44.5058 23.9604L44.5036 25.8846C44.737 30.2628 41.4816 32.4785 35.6394 32.4785L35.3028 32.475C34.825 30.7672 33.5434 29.3951 31.8916 28.7922C31.421 28.6204 30.9204 28.5112 30.3998 28.4742L30.0058 28.4604L29.7952 28.4625C31.4574 26.9965 32.5058 24.8508 32.5058 22.4604C32.5058 21.7698 32.4184 21.0998 32.2538 20.4606L41.0058 20.4604ZM24.5058 16.4604C27.8196 16.4604 30.5058 19.1467 30.5058 22.4604C30.5058 25.7743 27.8196 28.4604 24.5058 28.4604C21.192 28.4604 18.5058 25.7743 18.5058 22.4604C18.5058 19.1467 21.192 16.4604 24.5058 16.4604ZM13.5058 6.46045C16.8195 6.46045 19.5058 9.14675 19.5058 12.4604C19.5058 15.7741 16.8195 18.4604 13.5058 18.4604C10.1921 18.4604 7.50577 15.7741 7.50577 12.4604C7.50577 9.14675 10.1921 6.46045 13.5058 6.46045ZM35.5058 6.46045C38.8196 6.46045 41.5058 9.14675 41.5058 12.4604C41.5058 15.7741 38.8196 18.4604 35.5058 18.4604C32.192 18.4604 29.5058 15.7741 29.5058 12.4604C29.5058 9.14675 32.192 6.46045 35.5058 6.46045Z" fill="#454545"/>
</svg>
