<svg width="49" height="49" viewBox="0 0 49 49" fill="none" xmlns="http://www.w3.org/2000/svg">
<path d="M38.0024 44.3599H10.0024C7.7933 44.3599 6.00244 42.5691 6.00244 40.3599V12.3599C6.00244 10.1507 7.7933 8.35986 10.0024 8.35986H14.0024V4.35986H18.0024V8.35986H30.0024V4.35986H34.0024V8.35986H38.0024C40.2116 8.35986 42.0024 10.1507 42.0024 12.3599V40.3599C42.0024 42.5691 40.2116 44.3599 38.0024 44.3599ZM10.0024 20.3599V40.3599H38.0024V20.3599H10.0024ZM10.0024 12.3599V16.3599H38.0024V12.3599H10.0024ZM34.0024 36.3599H30.0024V32.3599H34.0024V36.3599ZM26.0024 36.3599H22.0024V32.3599H26.0024V36.3599ZM18.0024 36.3599H14.0024V32.3599H18.0024V36.3599ZM34.0024 28.3599H30.0024V24.3599H34.0024V28.3599ZM26.0024 28.3599H22.0024V24.3599H26.0024V28.3599ZM18.0024 28.3599H14.0024V24.3599H18.0024V28.3599Z" fill="white"/>
</svg>
