<svg width="80" height="80" viewBox="0 0 80 80" fill="none" xmlns="http://www.w3.org/2000/svg">
<rect width="80" height="80" rx="40" fill="#F0E2FA"/>
<path d="M35.8333 20C31.3234 20 27.6667 23.6532 27.6667 28.1621C27.6667 32.671 31.3234 36.3242 35.8333 36.3242C40.3433 36.3242 44 32.671 44 28.1621C44 23.6532 40.3433 20 35.8333 20Z" fill="#A335EF"/>
<path d="M31.1667 40.9863C26.6566 40.9863 23 44.6412 23 49.1517V54.9788H48.6667V49.1517C48.6667 44.6412 45.0101 40.9863 40.5 40.9863H31.1667Z" fill="#A335EF"/>
<path d="M52.1667 43.3333H51V55H58V49.1667C58 45.945 55.3883 43.3333 52.1667 43.3333Z" fill="#D6ADF2"/>
<path d="M49.8334 29.3334C46.6117 29.3334 44 31.9451 44 35.1667C44 38.3884 46.6117 41 49.8334 41C53.055 41 55.6667 38.3884 55.6667 35.1667C55.6667 31.9451 53.055 29.3334 49.8334 29.3334Z" fill="#D6ADF2"/>
</svg>
