<svg width="49" height="49" viewBox="0 0 49 49" fill="none" xmlns="http://www.w3.org/2000/svg">
<g clip-path="url(#clip0_13_62)">
<path d="M48.7243 24.4353C48.7243 11.6846 38.7088 1.22734 26.1156 0.481135C25.8561 0.452635 25.5958 0.433838 25.3318 0.433838C25.2538 0.433838 25.1758 0.442088 25.0978 0.444338C24.9576 0.442088 24.8181 0.433838 24.6763 0.433838C11.4163 0.433838 0.628387 11.2008 0.628387 24.4353C0.628387 37.6698 11.4164 48.4368 24.6763 48.4368C24.8181 48.4368 24.9576 48.4286 25.0986 48.4256C25.1766 48.4286 25.2546 48.4368 25.3326 48.4368C25.5966 48.4368 25.8568 48.4181 26.1163 48.3895C38.7088 47.6433 48.7243 37.1875 48.7243 24.4353V24.4353ZM44.25 32.1618C43.4235 31.9218 41.3475 31.4006 37.6845 30.9716C37.9875 28.9001 38.1533 26.7108 38.1533 24.4353C38.1533 22.6421 38.0498 20.9036 37.8585 19.2318C42.4995 18.6776 44.5328 17.9793 44.6693 17.9313L44.1105 16.357C45.153 18.8455 45.7305 21.574 45.7305 24.4353C45.7305 27.1631 45.2018 29.7678 44.2501 32.1618H44.25ZM14.0587 24.4354C14.0587 22.7569 14.1698 21.118 14.373 19.5416C16.8053 19.7328 19.7138 19.8738 23.1322 19.9068V30.3161C19.8045 30.3483 16.9605 30.4833 14.5687 30.6664C14.2387 28.6886 14.0587 26.5939 14.0587 24.4354V24.4354ZM26.127 3.63329C29.805 4.69904 32.9543 9.8065 34.365 16.576C32.0978 16.7567 29.367 16.8888 26.127 16.9196V3.63329ZM23.1324 3.66999V16.918C19.9276 16.8857 17.1849 16.7552 14.8794 16.579C16.3187 9.89425 19.4934 4.82499 23.1324 3.66999ZM23.1324 33.3054L23.1324 45.1996C19.7387 44.1226 16.7484 39.6414 15.1937 33.6204C17.4324 33.4562 20.0732 33.3362 23.1324 33.3054V33.3054ZM26.1271 45.2371L26.1271 33.3046C29.2186 33.3339 31.8488 33.4584 34.0591 33.6294C32.5306 39.7292 29.5591 44.2426 26.1271 45.2371ZM26.1271 30.3159L26.1271 19.9082C29.5636 19.8759 32.4548 19.7312 34.8548 19.5332C35.0577 21.1595 35.1594 22.7969 35.1593 24.4359C35.1593 26.5982 34.9853 28.6952 34.6658 30.6759C32.3026 30.4847 29.4721 30.3474 26.1271 30.3159ZM43.5579 15.1509C43.1049 15.2919 41.2112 15.8297 37.4162 16.2774C36.5702 11.7797 35.041 7.93515 33.0512 5.16015C37.6232 7.1469 41.3545 10.7057 43.558 15.1509H43.5579ZM17.4962 4.6817C15.0489 7.49195 13.0509 11.533 11.9604 16.312C8.56292 15.9437 6.52662 15.5109 5.71142 15.3144C8.08892 10.4094 12.3227 6.56045 17.4962 4.6817V4.6817ZM4.59697 18.1157C5.17447 18.2725 7.35851 18.8161 11.4198 19.2654C11.18 20.9784 11.0597 22.7061 11.0598 24.4359C11.0598 26.6987 11.2645 28.8759 11.6335 30.9369C8.14601 31.3134 6.00101 31.7642 5.03876 31.9967C4.12751 29.6484 3.62276 27.1007 3.62276 24.4352C3.62276 22.2339 3.96551 20.1107 4.59697 18.1157V18.1157ZM6.35276 34.7642C7.44326 34.5324 9.39551 34.1799 12.2868 33.8769C13.4253 38.0821 15.277 41.6401 17.4963 44.1879C12.7563 42.4666 8.81051 39.0902 6.35276 34.7642ZM33.0513 43.7094C34.843 41.2126 36.2613 37.8489 37.1433 33.9219C40.1155 34.2631 41.9815 34.6621 42.9228 34.8999C40.672 38.7939 37.2108 41.9026 33.0513 43.7094V43.7094Z" fill="#ffffff"/>
</g>
<defs>
<clipPath id="clip0_13_62">
<rect width="48" height="48" fill="#ffffff" transform="translate(0.676483 0.435333)"/>
</clipPath>
</defs>
</svg>
