<svg width="80" height="80" viewBox="0 0 80 80" fill="none" xmlns="http://www.w3.org/2000/svg">
<rect width="80" height="80" rx="40" fill="#FDE7E4"/>
<rect x="15" y="32.5155" width="28" height="30" rx="5" transform="rotate(-26.5502 15 32.5155)" fill="url(#paint0_linear_127_2)"/>
<rect x="32" y="30" width="28" height="30" rx="5" fill="url(#paint1_linear_127_2)"/>
<path d="M41.2 40.6363C41.2 40.2347 41.5582 39.9091 42 39.9091H50C50.4419 39.9091 50.8 40.2347 50.8 40.6363C50.8 41.038 50.4419 41.3636 50 41.3636H42C41.5582 41.3636 41.2 41.038 41.2 40.6363Z" fill="white"/>
<path d="M41.2 43.5455C41.2 43.1438 41.5582 42.8182 42 42.8182H50C50.4419 42.8182 50.8 43.1438 50.8 43.5455C50.8 43.9472 50.4419 44.2728 50 44.2728H42C41.5582 44.2728 41.2 43.9472 41.2 43.5455Z" fill="white"/>
<path d="M42 45.7273C41.5582 45.7273 41.2 46.0529 41.2 46.4546C41.2 46.8562 41.5582 47.1818 42 47.1818H50C50.4419 47.1818 50.8 46.8562 50.8 46.4546C50.8 46.0529 50.4419 45.7273 50 45.7273H42Z" fill="white"/>
<path d="M41.2 49.3636C41.2 48.962 41.5582 48.6364 42 48.6364H45.2C45.6419 48.6364 46 48.962 46 49.3636C46 49.7653 45.6419 50.0909 45.2 50.0909H42C41.5582 50.0909 41.2 49.7653 41.2 49.3636Z" fill="white"/>
<path fill-rule="evenodd" clip-rule="evenodd" d="M38 39.1818C38 37.9768 39.0745 37 40.4 37H51.6C52.9255 37 54 37.9768 54 39.1818V50.8182C54 52.0232 52.9255 53 51.6 53H40.4C39.0745 53 38 52.0232 38 50.8182V39.1818ZM40.4 38.4545H51.6C52.0418 38.4545 52.4 38.7802 52.4 39.1818V50.8182C52.4 51.2199 52.0418 51.5455 51.6 51.5455H40.4C39.9582 51.5455 39.6 51.2199 39.6 50.8182V39.1818C39.6 38.7802 39.9582 38.4545 40.4 38.4545Z" fill="white"/>
<defs>
<linearGradient id="paint0_linear_127_2" x1="35.3226" y1="38.5155" x2="15.2321" y2="58.4764" gradientUnits="userSpaceOnUse">
<stop stop-color="#F1B6AC"/>
<stop offset="1" stop-color="#FA6750"/>
</linearGradient>
<linearGradient id="paint1_linear_127_2" x1="60" y1="30" x2="44.1335" y2="48.3896" gradientUnits="userSpaceOnUse">
<stop stop-color="#F1B6AC"/>
<stop offset="1" stop-color="#FA6750"/>
</linearGradient>
</defs>
</svg>
