<svg width="80" height="80" viewBox="0 0 80 80" fill="none" xmlns="http://www.w3.org/2000/svg">
<rect width="80" height="80" rx="40" fill="#E7F2EF"/>
<rect x="15" y="27.5155" width="28" height="30" rx="5" transform="rotate(-26.5502 15 27.5155)" fill="url(#paint0_linear_109_4)"/>
<rect x="32" y="25" width="28" height="30" rx="5" fill="url(#paint1_linear_109_4)"/>
<path fill-rule="evenodd" clip-rule="evenodd" d="M39.5 40C39.5 38.2761 40.1848 36.6228 41.4038 35.4038C42.6228 34.1848 44.2761 33.5 46 33.5C47.7239 33.5 49.3772 34.1848 50.5962 35.4038C51.8152 36.6228 52.5 38.2761 52.5 40C52.5 41.7239 51.8152 43.3772 50.5962 44.5962C49.3772 45.8152 47.7239 46.5 46 46.5C44.2761 46.5 42.6228 45.8152 41.4038 44.5962C40.1848 43.3772 39.5 41.7239 39.5 40ZM46 32C43.8783 32 41.8434 32.8429 40.3431 34.3431C38.8429 35.8434 38 37.8783 38 40C38 42.1217 38.8429 44.1566 40.3431 45.6569C41.8434 47.1571 43.8783 48 46 48C48.1217 48 50.1566 47.1571 51.6569 45.6569C53.1571 44.1566 54 42.1217 54 40C54 37.8783 53.1571 35.8434 51.6569 34.3431C50.1566 32.8429 48.1217 32 46 32ZM46.5 36.75C46.5 36.5511 46.421 36.3603 46.2803 36.2197C46.1397 36.079 45.9489 36 45.75 36C45.5511 36 45.3603 36.079 45.2197 36.2197C45.079 36.3603 45 36.5511 45 36.75V40.25C45 40.3998 45.0449 40.5461 45.1289 40.6702C45.2128 40.7942 45.332 40.8903 45.471 40.946L47.971 41.946C48.1541 42.0129 48.3561 42.0058 48.5341 41.9263C48.7121 41.8468 48.8522 41.7011 48.9246 41.5201C48.997 41.3391 48.9961 41.137 48.9221 40.9567C48.8481 40.7763 48.7067 40.6319 48.528 40.554L46.5 39.742V36.75Z" fill="white"/>
<defs>
<linearGradient id="paint0_linear_109_4" x1="35.3226" y1="33.5155" x2="15.2321" y2="53.4764" gradientUnits="userSpaceOnUse">
<stop stop-color="#7FDB6A"/>
<stop offset="1" stop-color="#26AC5B"/>
</linearGradient>
<linearGradient id="paint1_linear_109_4" x1="52.3226" y1="31" x2="32.2321" y2="50.9609" gradientUnits="userSpaceOnUse">
<stop stop-color="#7FDB6A"/>
<stop offset="1" stop-color="#26AC5B"/>
</linearGradient>
</defs>
</svg>
