<svg width="49" height="49" viewBox="0 0 49 49" fill="none" xmlns="http://www.w3.org/2000/svg">
<path d="M24.6401 42.1359C22.1139 39.9811 19.7725 37.6189 17.6401 35.0739C14.4401 31.2519 10.6401 25.5599 10.6401 20.1358C10.6373 14.4709 14.0486 9.36263 19.2823 7.19465C24.5159 5.02665 30.5403 6.22632 34.5441 10.2338C37.1771 12.8551 38.6519 16.4206 38.6401 20.1358C38.6401 25.5599 34.8401 31.2519 31.6401 35.0739C29.5077 37.6189 27.1663 39.9811 24.6401 42.1359ZM24.6401 10.1358C19.12 10.1425 14.6468 14.6157 14.6401 20.1358C14.6401 22.4679 15.6941 26.5059 20.7101 32.5079C21.9463 33.9839 23.2581 35.3953 24.6401 36.7359C26.0221 35.3967 27.3345 33.9877 28.5721 32.5139C33.5861 26.5039 34.6401 22.4659 34.6401 20.1358C34.6335 14.6157 30.1603 10.1425 24.6401 10.1358ZM24.6401 26.1359C21.3263 26.1359 18.6401 23.4495 18.6401 20.1358C18.6401 16.8221 21.3263 14.1358 24.6401 14.1358C27.9539 14.1358 30.6401 16.8221 30.6401 20.1358C30.6401 21.7271 30.0079 23.2533 28.8827 24.3785C27.7575 25.5037 26.2315 26.1359 24.6401 26.1359Z" fill="white"/>
</svg>
