<svg width="49" height="49" viewBox="0 0 49 49" fill="none" xmlns="http://www.w3.org/2000/svg">
<g clip-path="url(#clip0_107_14)">
<path d="M24.4824 13.8892C20.5059 13.8892 17.2824 18.5898 17.2824 24.3892C17.2824 30.1876 20.5059 34.8892 24.4824 34.8892C28.4574 34.8892 31.6824 30.1895 31.6824 24.3892C31.6824 18.5898 28.4589 13.8892 24.4824 13.8892ZM27.4824 29.6392C27.4824 30.0535 27.2139 30.3892 26.8824 30.3892H22.0824C21.7509 30.3892 21.4824 30.0535 21.4824 29.6392V28.1392C21.4824 27.7248 21.7509 27.3892 22.0824 27.3892H23.2824V22.1917L23.2472 22.2207C23.1816 22.2754 23.1081 22.3134 23.0309 22.3325C22.9536 22.3516 22.874 22.3515 22.7968 22.3322C22.7195 22.3129 22.6461 22.2747 22.5807 22.2198C22.5152 22.165 22.4591 22.0946 22.4154 22.0126L21.7494 20.7648C21.7057 20.6829 21.6753 20.591 21.66 20.4944C21.6447 20.3978 21.6448 20.2984 21.6602 20.2018C21.6757 20.1052 21.7063 20.0134 21.7501 19.9316C21.794 19.8498 21.8503 19.7797 21.9159 19.7251L23.0657 18.767C23.3613 18.5206 23.7086 18.3891 24.0639 18.3892H25.0824C25.4139 18.3892 25.6824 18.7248 25.6824 19.1392V27.3892H26.8824C27.2139 27.3892 27.4824 27.7248 27.4824 28.1392V29.6392ZM46.0824 6.38916H2.88242C1.55717 6.38916 0.482422 7.7326 0.482422 9.38916V39.3892C0.482422 41.0457 1.55717 42.3892 2.88242 42.3892H46.0824C47.4077 42.3892 48.4824 41.0457 48.4824 39.3892V9.38916C48.4824 7.7326 47.4077 6.38916 46.0824 6.38916ZM44.8824 31.8892C42.2312 31.8892 40.0824 34.5751 40.0824 37.8892H8.88242C8.88242 34.5751 6.73367 31.8892 4.08242 31.8892V16.8892C6.73367 16.8892 8.88242 14.2032 8.88242 10.8892H40.0824C40.0824 14.2032 42.2312 16.8892 44.8824 16.8892V31.8892Z" fill="white"/>
</g>
<defs>
<clipPath id="clip0_107_14">
<rect width="48" height="48" fill="white" transform="translate(0.482422 0.38916)"/>
</clipPath>
</defs>
</svg>
